<?xml version="1.0" encoding="iso-8859-1"?>
<!-- Generator: Adobe Illustrator 20.1.0, SVG Export Plug-In . SVG Version: 6.00 Build 0)  -->
<svg xmlns="http://www.w3.org/2000/svg" xmlns:xlink="http://www.w3.org/1999/xlink" version="1.1" id="&#1057;&#1083;&#1086;&#1081;_1" x="0px" y="0px" viewBox="0 0 64 64" style="enable-background:new 0 0 64 64;" xml:space="preserve" width="64px" height="64px">
<linearGradient id="SVGID_1__43625" gradientUnits="userSpaceOnUse" x1="32" y1="6.6667" x2="32" y2="57.8724" spreadMethod="reflect">
	<stop offset="0" style="stop-color:#1A6DFF"/>
	<stop offset="1" style="stop-color:#C822FF"/>
</linearGradient>
<path style="fill:url(#SVGID_1__43625);" d="M44,57H20c-7.168,0-13-5.832-13-13V20c0-7.168,5.832-13,13-13h24c7.168,0,13,5.832,13,13v24  C57,51.168,51.168,57,44,57z M20,9C13.935,9,9,13.935,9,20v24c0,6.065,4.935,11,11,11h24c6.065,0,11-4.935,11-11V20  c0-6.065-4.935-11-11-11H20z"/>
<linearGradient id="SVGID_2__43625" gradientUnits="userSpaceOnUse" x1="32" y1="18.1667" x2="32" y2="45.6793" spreadMethod="reflect">
	<stop offset="0" style="stop-color:#6DC7FF"/>
	<stop offset="1" style="stop-color:#E6ABFF"/>
</linearGradient>
<path style="fill:url(#SVGID_2__43625);" d="M32,45c-7.168,0-13-5.832-13-13c0-7.168,5.832-13,13-13c7.168,0,13,5.832,13,13  C45,39.168,39.168,45,32,45z M32,23c-4.962,0-9,4.038-9,9c0,4.963,4.038,9,9,9c4.963,0,9-4.037,9-9C41,27.038,36.963,23,32,23z"/>
<linearGradient id="SVGID_3__43625" gradientUnits="userSpaceOnUse" x1="46" y1="12.75" x2="46" y2="23.0487" spreadMethod="reflect">
	<stop offset="0" style="stop-color:#6DC7FF"/>
	<stop offset="1" style="stop-color:#E6ABFF"/>
</linearGradient>
<circle style="fill:url(#SVGID_3__43625);" cx="46" cy="18" r="3"/>
</svg>
