<?xml version="1.0" encoding="iso-8859-1"?>
<!-- Generator: Adobe Illustrator 22.0.1, SVG Export Plug-In . SVG Version: 6.00 Build 0)  -->
<svg xmlns="http://www.w3.org/2000/svg" xmlns:xlink="http://www.w3.org/1999/xlink" version="1.1" id="Layer_1" x="0px" y="0px" viewBox="0 0 64 64" style="enable-background:new 0 0 64 64;" xml:space="preserve" width="64px" height="64px">
<linearGradient id="SVGID_1__63852" gradientUnits="userSpaceOnUse" x1="32" y1="9.0833" x2="32" y2="54.6759" spreadMethod="reflect">
	<stop offset="0" style="stop-color:#1A6DFF"/>
	<stop offset="1" style="stop-color:#C822FF"/>
</linearGradient>
<path style="fill:url(#SVGID_1__63852);" d="M50,55H14c-2.757,0-5-2.243-5-5V14c0-2.757,2.243-5,5-5h36c2.757,0,5,2.243,5,5v36  C55,52.757,52.757,55,50,55z M14,11c-1.654,0-3,1.346-3,3v36c0,1.654,1.346,3,3,3h36c1.654,0,3-1.346,3-3V14c0-1.654-1.346-3-3-3H14  z"/>
<linearGradient id="SVGID_2__63852" gradientUnits="userSpaceOnUse" x1="32" y1="16" x2="32" y2="26" spreadMethod="reflect">
	<stop offset="0" style="stop-color:#6DC7FF"/>
	<stop offset="1" style="stop-color:#E6ABFF"/>
</linearGradient>
<path style="fill:url(#SVGID_2__63852);" d="M33,26h-2c-1.105,0-2-0.895-2-2v-6c0-1.105,0.895-2,2-2h2c1.105,0,2,0.895,2,2v6  C35,25.105,34.105,26,33,26z M31.5,24h1c0.276,0,0.5-0.224,0.5-0.5v-5c0-0.276-0.224-0.5-0.5-0.5h-1c-0.276,0-0.5,0.224-0.5,0.5v5  C31,23.776,31.224,24,31.5,24z"/>
<linearGradient id="SVGID_3__63852" gradientUnits="userSpaceOnUse" x1="39" y1="16" x2="39" y2="26" spreadMethod="reflect">
	<stop offset="0" style="stop-color:#6DC7FF"/>
	<stop offset="1" style="stop-color:#E6ABFF"/>
</linearGradient>
<path style="fill:url(#SVGID_3__63852);" d="M40,26h-2c-1.105,0-2-0.895-2-2v-7.5c0-0.276,0.224-0.5,0.5-0.5h1c0.276,0,0.5,0.224,0.5,0.5  V24h2v-7.5c0-0.276,0.224-0.5,0.5-0.5h1c0.276,0,0.5,0.224,0.5,0.5V24C42,25.105,41.105,26,40,26z"/>
<linearGradient id="SVGID_4__63852" gradientUnits="userSpaceOnUse" x1="24.5" y1="13" x2="24.5" y2="26" spreadMethod="reflect">
	<stop offset="0" style="stop-color:#6DC7FF"/>
	<stop offset="1" style="stop-color:#E6ABFF"/>
</linearGradient>
<path style="fill:url(#SVGID_4__63852);" d="M26,13.5V19h-3v-5.5c0-0.276-0.224-0.5-0.5-0.5h-1c-0.276,0-0.5,0.224-0.5,0.5V19  c0,1.105,0.895,2,2,2h3v3h-4.5c-0.276,0-0.5,0.224-0.5,0.5v1c0,0.276,0.224,0.5,0.5,0.5H26c1.105,0,2-0.895,2-2V13.5  c0-0.276-0.224-0.5-0.5-0.5h-1C26.224,13,26,13.224,26,13.5z"/>
<linearGradient id="SVGID_5__63852" gradientUnits="userSpaceOnUse" x1="32" y1="28.0025" x2="32" y2="50.8383" spreadMethod="reflect">
	<stop offset="0" style="stop-color:#6DC7FF"/>
	<stop offset="1" style="stop-color:#E6ABFF"/>
</linearGradient>
<path style="fill:url(#SVGID_5__63852);" d="M49.62,33.95c-0.33-3.11-2.91-5.53-6.13-5.76c-3.54-0.25-19.44-0.25-22.98,0  c-3.22,0.23-5.8,2.65-6.13,5.75C14.13,36.27,14,38.14,14,39.5s0.13,3.23,0.38,5.55c0.33,3.11,2.91,5.53,6.13,5.76  C22.28,50.94,27.14,51,32,51s9.72-0.06,11.49-0.19c1.61-0.11,3.06-0.78,4.15-1.8c1.09-1.02,1.82-2.41,1.98-3.96  C49.87,42.73,50,40.86,50,39.5S49.87,36.27,49.62,33.95z M23,45.5c0,0.28-0.22,0.5-0.5,0.5h-1c-0.28,0-0.5-0.22-0.5-0.5V35h-2.5  c-0.28,0-0.5-0.22-0.5-0.5v-1c0-0.28,0.22-0.5,0.5-0.5h7c0.28,0,0.5,0.22,0.5,0.5v1c0,0.28-0.22,0.5-0.5,0.5H23V45.5z M31,44  c0,1.1-0.9,2-2,2h-2c-1.1,0-2-0.9-2-2v-7.5c0-0.28,0.22-0.5,0.5-0.5h1c0.28,0,0.5,0.22,0.5,0.5V44h2v-7.5c0-0.28,0.22-0.5,0.5-0.5h1  c0.28,0,0.5,0.22,0.5,0.5V44z M38,44c0,1.1-0.9,2-2,2h-2c-1.1,0-2-0.9-2-2V33.5c0-0.28,0.22-0.5,0.5-0.5h1c0.28,0,0.5,0.22,0.5,0.5  V36h2c1.1,0,2,0.9,2,2V44z M45,40c0,1.1-0.9,2-2,2h-2v2h2v-0.5c0-0.28,0.22-0.5,0.5-0.5h1c0.28,0,0.5,0.22,0.5,0.5V44  c0,1.1-0.9,2-2,2h-2c-1.1,0-2-0.9-2-2v-6c0-1.1,0.9-2,2-2h2c1.1,0,2,0.9,2,2V40z"/>
<linearGradient id="SVGID_6__63852" gradientUnits="userSpaceOnUse" x1="35" y1="28" x2="35" y2="50.8358" spreadMethod="reflect">
	<stop offset="0" style="stop-color:#6DC7FF"/>
	<stop offset="1" style="stop-color:#E6ABFF"/>
</linearGradient>
<path style="fill:url(#SVGID_6__63852);" d="M36,38.5v5c0,0.28-0.22,0.5-0.5,0.5h-1c-0.28,0-0.5-0.22-0.5-0.5v-5c0-0.28,0.22-0.5,0.5-0.5  h1C35.78,38,36,38.22,36,38.5z"/>
<linearGradient id="SVGID_7__63852" gradientUnits="userSpaceOnUse" x1="42" y1="28" x2="42" y2="50.8358" spreadMethod="reflect">
	<stop offset="0" style="stop-color:#6DC7FF"/>
	<stop offset="1" style="stop-color:#E6ABFF"/>
</linearGradient>
<path style="fill:url(#SVGID_7__63852);" d="M43,38.5v1c0,0.28-0.22,0.5-0.5,0.5h-1c-0.28,0-0.5-0.22-0.5-0.5v-1c0-0.28,0.22-0.5,0.5-0.5  h1C42.78,38,43,38.22,43,38.5z"/>
</svg>
