<?xml version="1.0" encoding="UTF-8"?>
<!DOCTYPE svg PUBLIC "-//W3C//DTD SVG 1.1//EN" "http://www.w3.org/Graphics/SVG/1.1/DTD/svg11.dtd">
<!-- Creator: CorelDRAW 2018 (64 Bit Versão de avaliação) -->
<svg xmlns="http://www.w3.org/2000/svg" xml:space="preserve" width="20.6156mm" height="2.757mm" version="1.1" shape-rendering="geometricPrecision" text-rendering="geometricPrecision" image-rendering="optimizeQuality" fill-rule="evenodd" clip-rule="evenodd"
viewBox="0 0 573.77 76.73"
 xmlns:xlink="http://www.w3.org/1999/xlink">
 <defs>
    <clipPath id="id0">
     <path d="M31.66 33.29c28.94,0.82 25.05,40.62 2.73,31.51 -3.85,-1.57 -6.91,-4.33 -7.4,-9.13 -0.53,-5.24 2.53,-8.94 6.26,-10.22 4.99,-1.71 9.49,1.1 10.36,5.4 1.07,5.24 -4.6,9.45 -8.02,6.37 0.49,-0.29 0.91,-0.38 1.4,-0.6 0.69,-0.3 0.89,-0.6 1.26,-0.82 -1.28,-0.19 -2.29,-0.13 -3.5,-0.53 -1.16,-0.38 -2.01,-1.07 -2.93,-1.36 0.42,3.43 4.68,6.85 9.16,5.73 7.96,-1.99 8.75,-14.34 -0.14,-18.51 -4.37,-2.05 -8.62,-1.31 -12.65,0.58 -6.85,3.22 -10.08,13.19 -6.37,21.32 3.09,6.77 10.16,11.26 20.35,10.63 12.91,-0.8 22.55,-8.1 28.21,-18.25 11.33,-20.32 -9.63,-19.11 -16.32,-24.24 -2.49,-1.91 -5.37,-6.87 -2.75,-10.92 0.96,-1.48 2.57,-2.47 4.77,-2.86 4.77,-0.83 4.2,0.73 5.25,2.26 2.89,0.22 5.4,1.1 7.27,2.51 0.85,0.64 1.86,1.64 2.49,2.49 1.01,1.37 0.75,2.26 2.71,2.44 -0.62,-6.2 -6.76,-14.02 -10.87,-17.82 -3.72,-3.44 -8.22,-6.26 -13.29,-7.97 -0.89,-0.3 -1.84,-0.56 -2.82,-0.82l-2.19 -0.5c-1.4,0.01 -0.38,-0.11 -0.86,0.27 3.27,0.73 7.98,3.92 10.11,6.58 0.47,0.59 2.07,2.63 2.16,3.37 -6.37,1.05 -11.22,4.85 -11.29,11.79 -0.04,4.3 2.03,7.46 3.59,10.84l0.97 1.93c0.24,0.58 1.36,3.86 1.31,4.06 -0.12,0.05 0.31,0.51 -0.57,-0.04 -0.24,-0.15 -0.38,-0.45 -0.51,-0.64 -0.67,-0.98 -2.33,-2.52 -3.32,-3.36 -2.27,-1.93 -1.77,-1.88 -4.9,-3.9 -1.87,-1.21 -3.53,-2.21 -5.49,-3.31 -5.51,-3.08 -12.38,-5.81 -14.7,-11.88 -1.36,-3.56 -0.74,-7.68 1.07,-10.97 0.55,-1 1.39,-1.89 1.8,-2.82 -22.9,4.07 -33.37,43.37 -13.54,61.37 1.37,1.37 5.73,5.27 7.79,5.98 -0.36,-0.63 -1.82,-1.83 -2.51,-2.65 -2.76,-3.24 -4.51,-5.6 -5.97,-10.12 -1.07,-3.31 -2.28,-11.53 3.48,-10.75 1.78,0.24 2.62,1.16 3.87,1.54 -0.17,-2.22 -1.66,-7.71 3.09,-8.58 7.96,-1.46 5.18,-5.61 11.44,-5.43z"/>
    </clipPath>
 </defs>
 <g id="Camada_x0020_1">
  <metadata id="CorelCorpID_0Corel-Layer"/>
  <path fill="black" fill-rule="nonzero" d="M93.5 25.19c0,-0.62 0.21,-1.08 0.63,-1.4 0.41,-0.32 0.87,-0.48 1.36,-0.48l4.07 0c0.53,0 0.94,0.16 1.22,0.48 0.28,0.32 0.49,0.71 0.63,1.17 0.15,0.47 0.25,0.97 0.32,1.51 0.06,0.54 0.14,1.04 0.23,1.48 0.47,-0.66 1,-1.3 1.58,-1.93 0.58,-0.63 1.24,-1.18 1.98,-1.66 0.74,-0.49 1.58,-0.88 2.51,-1.18 0.93,-0.3 1.99,-0.44 3.18,-0.44 1.06,0 2.02,0.06 2.86,0.2 0.85,0.14 1.66,0.35 2.44,0.63 0.77,0.29 1.53,0.66 2.27,1.11 0.74,0.46 1.54,1 2.39,1.61 0.36,0.23 0.68,0.5 0.94,0.8 0.26,0.3 0.39,0.65 0.39,1.05 -0.02,0.17 -0.05,0.35 -0.1,0.54 -0.04,0.19 -0.13,0.38 -0.25,0.57l-2.61 4.13c-0.17,0.21 -0.36,0.36 -0.58,0.46 -0.22,0.09 -0.42,0.15 -0.59,0.15 -0.34,0 -0.67,-0.08 -0.99,-0.25 -0.7,-0.38 -1.33,-0.74 -1.91,-1.08 -0.57,-0.34 -1.13,-0.64 -1.68,-0.88 -0.55,-0.24 -1.11,-0.44 -1.7,-0.57 -0.58,-0.14 -1.24,-0.2 -1.96,-0.2 -1.89,0 -3.48,0.6 -4.78,1.81 -1.31,1.21 -2.18,2.87 -2.63,4.99l0 23.97c0,1.27 -0.66,1.91 -1.98,1.91l-5.25 0c-1.32,0 -1.98,-0.63 -1.98,-1.91l0 -36.6z"/>
  <path fill="black" fill-rule="nonzero" d="M119.5 43.58c0,-1.93 0.24,-3.79 0.74,-5.57 0.5,-1.8 1.21,-3.47 2.12,-5.01 0.91,-1.55 2,-2.96 3.28,-4.22 1.26,-1.26 2.67,-2.34 4.22,-3.24 1.55,-0.9 3.21,-1.6 4.97,-2.1 1.77,-0.5 3.62,-0.75 5.55,-0.75 1.9,0 3.74,0.25 5.52,0.75 1.78,0.5 3.43,1.2 4.97,2.1 1.54,0.9 2.95,1.98 4.21,3.24 1.27,1.26 2.36,2.67 3.27,4.22 0.91,1.55 1.62,3.21 2.12,5.01 0.5,1.79 0.74,3.65 0.74,5.57 0,1.94 -0.24,3.79 -0.74,5.57 -0.5,1.78 -1.21,3.44 -2.12,4.98 -0.91,1.54 -2,2.94 -3.27,4.22 -1.26,1.27 -2.67,2.35 -4.21,3.25 -1.54,0.9 -3.19,1.6 -4.97,2.1 -1.78,0.5 -3.62,0.75 -5.52,0.75 -1.93,0 -3.78,-0.25 -5.55,-0.75 -1.76,-0.5 -3.42,-1.2 -4.97,-2.1 -1.55,-0.9 -2.96,-1.98 -4.22,-3.25 -1.27,-1.28 -2.37,-2.68 -3.28,-4.22 -0.91,-1.54 -1.62,-3.2 -2.12,-4.98 -0.5,-1.78 -0.74,-3.63 -0.74,-5.57zm8.96 -0.01c0,1.69 0.3,3.3 0.89,4.81 0.59,1.51 1.42,2.84 2.48,3.96 1.05,1.12 2.31,2.01 3.76,2.67 1.44,0.66 3.03,0.99 4.75,0.99 1.66,0 3.22,-0.33 4.64,-0.99 1.43,-0.66 2.67,-1.55 3.7,-2.67 1.04,-1.12 1.85,-2.45 2.44,-3.96 0.58,-1.52 0.87,-3.12 0.87,-4.81 0,-1.68 -0.29,-3.28 -0.87,-4.8 -0.58,-1.53 -1.4,-2.87 -2.44,-4.03 -1.03,-1.16 -2.27,-2.08 -3.7,-2.77 -1.42,-0.69 -2.98,-1.03 -4.64,-1.03 -1.72,0 -3.31,0.34 -4.75,1.03 -1.45,0.69 -2.71,1.61 -3.76,2.77 -1.06,1.16 -1.89,2.5 -2.48,4.03 -0.59,1.53 -0.89,3.13 -0.89,4.8z"/>
  <path fill="black" fill-rule="nonzero" d="M163.64 13.21c0,-0.55 0.12,-1 0.34,-1.37 0.22,-0.36 0.75,-0.54 1.61,-0.54l5.45 0c0.63,0 1.07,0.19 1.35,0.56 0.28,0.37 0.41,0.76 0.41,1.19l0 26.25 13.99 -15.12c0.28,-0.28 0.56,-0.49 0.85,-0.64 0.29,-0.15 0.63,-0.22 1.03,-0.22l7.28 0c0.46,0 0.82,0.09 1.05,0.29 0.23,0.19 0.35,0.45 0.35,0.76 0,0.21 -0.03,0.4 -0.09,0.57 -0.06,0.17 -0.18,0.36 -0.35,0.57l-14.27 14.91 16.95 20.92 -0.06 0c0.23,0.23 0.4,0.49 0.5,0.76 0.09,0.28 0.14,0.5 0.14,0.67 0,0.36 -0.11,0.6 -0.32,0.73 -0.21,0.13 -0.53,0.19 -0.95,0.19l-8.11 0c-0.62,0 -1.21,-0.45 -1.78,-1.34l-12.3 -15.99 -3.82 3.97 0 11.45c0,0.19 -0.03,0.39 -0.09,0.61 -0.06,0.22 -0.17,0.44 -0.31,0.63 -0.14,0.19 -0.32,0.35 -0.55,0.48 -0.23,0.13 -0.52,0.19 -0.87,0.19l-5.64 0c-0.33,0 -0.59,-0.06 -0.8,-0.19 -0.21,-0.13 -0.39,-0.28 -0.54,-0.48 -0.15,-0.19 -0.26,-0.39 -0.32,-0.59 -0.06,-0.2 -0.1,-0.36 -0.1,-0.49l0 -48.74z"/>
  <path fill="black" fill-rule="nonzero" d="M196.27 43.58c0,-1.93 0.24,-3.79 0.74,-5.57 0.5,-1.8 1.21,-3.47 2.12,-5.01 0.91,-1.55 2,-2.96 3.28,-4.22 1.26,-1.26 2.67,-2.34 4.22,-3.24 1.55,-0.9 3.21,-1.6 4.97,-2.1 1.77,-0.5 3.62,-0.75 5.55,-0.75 1.9,0 3.74,0.25 5.52,0.75 1.78,0.5 3.43,1.2 4.97,2.1 1.54,0.9 2.95,1.98 4.21,3.24 1.27,1.26 2.36,2.67 3.27,4.22 0.91,1.55 1.62,3.21 2.12,5.01 0.5,1.79 0.74,3.65 0.74,5.57 0,1.94 -0.24,3.79 -0.74,5.57 -0.5,1.78 -1.21,3.44 -2.12,4.98 -0.91,1.54 -2,2.94 -3.27,4.22 -1.26,1.27 -2.67,2.35 -4.21,3.25 -1.54,0.9 -3.19,1.6 -4.97,2.1 -1.78,0.5 -3.62,0.75 -5.52,0.75 -1.93,0 -3.78,-0.25 -5.55,-0.75 -1.76,-0.5 -3.42,-1.2 -4.97,-2.1 -1.55,-0.9 -2.96,-1.98 -4.22,-3.25 -1.27,-1.28 -2.37,-2.68 -3.28,-4.22 -0.91,-1.54 -1.62,-3.2 -2.12,-4.98 -0.5,-1.78 -0.74,-3.63 -0.74,-5.57zm8.96 -0.01c0,1.69 0.3,3.3 0.89,4.81 0.59,1.51 1.42,2.84 2.48,3.96 1.05,1.12 2.31,2.01 3.76,2.67 1.44,0.66 3.03,0.99 4.75,0.99 1.66,0 3.22,-0.33 4.64,-0.99 1.43,-0.66 2.67,-1.55 3.7,-2.67 1.04,-1.12 1.85,-2.45 2.44,-3.96 0.58,-1.52 0.87,-3.12 0.87,-4.81 0,-1.68 -0.29,-3.28 -0.87,-4.8 -0.58,-1.53 -1.4,-2.87 -2.44,-4.03 -1.03,-1.16 -2.27,-2.08 -3.7,-2.77 -1.42,-0.69 -2.98,-1.03 -4.64,-1.03 -1.72,0 -3.31,0.34 -4.75,1.03 -1.45,0.69 -2.71,1.61 -3.76,2.77 -1.06,1.16 -1.89,2.5 -2.48,4.03 -0.59,1.53 -0.89,3.13 -0.89,4.8z"/>
  <g id="_2315681733216">
   <path fill="black" d="M31.66 33.29c28.94,0.82 25.05,40.62 2.73,31.51 -3.85,-1.57 -6.91,-4.33 -7.4,-9.13 -0.53,-5.24 2.53,-8.94 6.26,-10.22 4.99,-1.71 9.49,1.1 10.36,5.4 1.07,5.24 -4.6,9.45 -8.02,6.37 0.49,-0.29 0.91,-0.38 1.4,-0.6 0.69,-0.3 0.89,-0.6 1.26,-0.82 -1.28,-0.19 -2.29,-0.13 -3.5,-0.53 -1.16,-0.38 -2.01,-1.07 -2.93,-1.36 0.42,3.43 4.68,6.85 9.16,5.73 7.96,-1.99 8.75,-14.34 -0.14,-18.51 -4.37,-2.05 -8.62,-1.31 -12.65,0.58 -6.85,3.22 -10.08,13.19 -6.37,21.32 3.09,6.77 10.16,11.26 20.35,10.63 12.91,-0.8 22.55,-8.1 28.21,-18.25 11.33,-20.32 -9.63,-19.11 -16.32,-24.24 -2.49,-1.91 -5.37,-6.87 -2.75,-10.92 0.96,-1.48 2.57,-2.47 4.77,-2.86 4.77,-0.83 4.2,0.73 5.25,2.26 2.89,0.22 5.4,1.1 7.27,2.51 0.85,0.64 1.86,1.64 2.49,2.49 1.01,1.37 0.75,2.26 2.71,2.44 -0.62,-6.2 -6.76,-14.02 -10.87,-17.82 -3.72,-3.44 -8.22,-6.26 -13.29,-7.97 -0.89,-0.3 -1.84,-0.56 -2.82,-0.82l-2.19 -0.5c-1.4,0.01 -0.38,-0.11 -0.86,0.27 3.27,0.73 7.98,3.92 10.11,6.58 0.47,0.59 2.07,2.63 2.16,3.37 -6.37,1.05 -11.22,4.85 -11.29,11.79 -0.04,4.3 2.03,7.46 3.59,10.84l0.97 1.93c0.24,0.58 1.36,3.86 1.31,4.06 -0.12,0.05 0.31,0.51 -0.57,-0.04 -0.24,-0.15 -0.38,-0.45 -0.51,-0.64 -0.67,-0.98 -2.33,-2.52 -3.32,-3.36 -2.27,-1.93 -1.77,-1.88 -4.9,-3.9 -1.87,-1.21 -3.53,-2.21 -5.49,-3.31 -5.51,-3.08 -12.38,-5.81 -14.7,-11.88 -1.36,-3.56 -0.74,-7.68 1.07,-10.97 0.55,-1 1.39,-1.89 1.8,-2.82 -22.9,4.07 -33.37,43.37 -13.54,61.37 1.37,1.37 5.73,5.27 7.79,5.98 -0.36,-0.63 -1.82,-1.83 -2.51,-2.65 -2.76,-3.24 -4.51,-5.6 -5.97,-10.12 -1.07,-3.31 -2.28,-11.53 3.48,-10.75 1.78,0.24 2.62,1.16 3.87,1.54 -0.17,-2.22 -1.66,-7.71 3.09,-8.58 7.96,-1.46 5.18,-5.61 11.44,-5.43z"/>
   <g clip-path="url(#id0)">
    <g>
     <path id="1" fill="#333333" d="M89.99 59.99c-5.12,-16.82 -13.13,-25.62 -24.8,-24.25 8.52,18.68 -5.69,22.5 -8.53,33.75l33.33 -9.5z"/>
    </g>
   </g>
   <path fill="none" d="M31.66 33.29c28.94,0.82 25.05,40.62 2.73,31.51 -3.85,-1.57 -6.91,-4.33 -7.4,-9.13 -0.53,-5.24 2.53,-8.94 6.26,-10.22 4.99,-1.71 9.49,1.1 10.36,5.4 1.07,5.24 -4.6,9.45 -8.02,6.37 0.49,-0.29 0.91,-0.38 1.4,-0.6 0.69,-0.3 0.89,-0.6 1.26,-0.82 -1.28,-0.19 -2.29,-0.13 -3.5,-0.53 -1.16,-0.38 -2.01,-1.07 -2.93,-1.36 0.42,3.43 4.68,6.85 9.16,5.73 7.96,-1.99 8.75,-14.34 -0.14,-18.51 -4.37,-2.05 -8.62,-1.31 -12.65,0.58 -6.85,3.22 -10.08,13.19 -6.37,21.32 3.09,6.77 10.16,11.26 20.35,10.63 12.91,-0.8 22.55,-8.1 28.21,-18.25 11.33,-20.32 -9.63,-19.11 -16.32,-24.24 -2.49,-1.91 -5.37,-6.87 -2.75,-10.92 0.96,-1.48 2.57,-2.47 4.77,-2.86 4.77,-0.83 4.2,0.73 5.25,2.26 2.89,0.22 5.4,1.1 7.27,2.51 0.85,0.64 1.86,1.64 2.49,2.49 1.01,1.37 0.75,2.26 2.71,2.44 -0.62,-6.2 -6.76,-14.02 -10.87,-17.82 -3.72,-3.44 -8.22,-6.26 -13.29,-7.97 -0.89,-0.3 -1.84,-0.56 -2.82,-0.82l-2.19 -0.5c-1.4,0.01 -0.38,-0.11 -0.86,0.27 3.27,0.73 7.98,3.92 10.11,6.58 0.47,0.59 2.07,2.63 2.16,3.37 -6.37,1.05 -11.22,4.85 -11.29,11.79 -0.04,4.3 2.03,7.46 3.59,10.84l0.97 1.93c0.24,0.58 1.36,3.86 1.31,4.06 -0.12,0.05 0.31,0.51 -0.57,-0.04 -0.24,-0.15 -0.38,-0.45 -0.51,-0.64 -0.67,-0.98 -2.33,-2.52 -3.32,-3.36 -2.27,-1.93 -1.77,-1.88 -4.9,-3.9 -1.87,-1.21 -3.53,-2.21 -5.49,-3.31 -5.51,-3.08 -12.38,-5.81 -14.7,-11.88 -1.36,-3.56 -0.74,-7.68 1.07,-10.97 0.55,-1 1.39,-1.89 1.8,-2.82 -22.9,4.07 -33.37,43.37 -13.54,61.37 1.37,1.37 5.73,5.27 7.79,5.98 -0.36,-0.63 -1.82,-1.83 -2.51,-2.65 -2.76,-3.24 -4.51,-5.6 -5.97,-10.12 -1.07,-3.31 -2.28,-11.53 3.48,-10.75 1.78,0.24 2.62,1.16 3.87,1.54 -0.17,-2.22 -1.66,-7.71 3.09,-8.58 7.96,-1.46 5.18,-5.61 11.44,-5.43z"/>
   <path fill="#333333" d="M49.33 8.12c-6.88,-7.13 -14.2,-8.69 -21.86,-6.12 -7.29,19.28 10.35,14.06 16.61,28.12 -4.11,-9.29 -4.64,-17.38 5.25,-22z"/>
  </g>
  <path fill="#0F5FFF" fill-rule="nonzero" d="M237.58 62.52c0.11,-0.42 0.23,-0.82 0.37,-1.17 0.14,-0.36 0.25,-0.69 0.36,-0.99l17.14 -42.7c0.06,-0.23 0.24,-0.49 0.53,-0.77 0.29,-0.29 0.67,-0.43 1.16,-0.43l5.12 0c0.51,0 0.88,0.13 1.1,0.38 0.22,0.25 0.38,0.48 0.49,0.67l1.05 2.48 16.79 42.03c0,0.06 0.02,0.17 0.05,0.33 0.03,0.16 0.04,0.3 0.04,0.4 0,0.64 -0.46,0.95 -1.4,0.95l-6.26 0c-0.47,0 -0.83,-0.09 -1.08,-0.29 -0.26,-0.19 -0.47,-0.49 -0.64,-0.89l-0.57 -1.46c-0.4,-1.02 -0.81,-2.03 -1.21,-3.05 -0.4,-1.02 -0.79,-2.05 -1.17,-3.08l-19.62 0c-0.55,1.48 -1.08,2.87 -1.6,4.17 -0.52,1.31 -0.96,2.45 -1.32,3.42 -0.3,0.78 -0.85,1.18 -1.65,1.18l-6.36 0c-0.4,0 -0.72,-0.08 -0.97,-0.22 -0.24,-0.15 -0.37,-0.37 -0.37,-0.67 0,-0.13 0.01,-0.22 0.03,-0.29zm22.13 -33.95c-1.14,2.93 -2.28,5.96 -3.41,9.09 -1.13,3.14 -2.28,6.16 -3.42,9.06l13.55 0 -6.71 -18.15z"/>
  <path id="1" fill="#0F5FFF" fill-rule="nonzero" d="M314.97 53.14c0.36,-0.23 0.67,-0.38 0.91,-0.43 0.24,-0.05 0.45,-0.07 0.62,-0.07 0.36,0.02 0.67,0.21 0.92,0.57l0.76 1.05 2.26 3.21c0.11,0.15 0.19,0.3 0.26,0.46 0.06,0.16 0.09,0.31 0.09,0.43 0,0.34 -0.12,0.63 -0.35,0.9 -0.23,0.26 -0.54,0.54 -0.92,0.82 -1.8,1.31 -3.74,2.37 -5.83,3.18 -2.09,0.8 -4.39,1.21 -6.89,1.21 -1.89,0 -3.71,-0.25 -5.48,-0.75 -1.77,-0.5 -3.43,-1.2 -4.97,-2.1 -1.54,-0.9 -2.94,-1.98 -4.22,-3.24 -1.27,-1.27 -2.37,-2.67 -3.3,-4.22 -0.93,-1.56 -1.64,-3.22 -2.14,-5 -0.5,-1.78 -0.75,-3.65 -0.75,-5.57 0,-1.93 0.25,-3.79 0.75,-5.57 0.5,-1.78 1.21,-3.45 2.14,-5 0.92,-1.55 2.03,-2.95 3.3,-4.22 1.28,-1.26 2.68,-2.34 4.22,-3.24 1.54,-0.9 3.2,-1.6 4.97,-2.1 1.77,-0.5 3.59,-0.75 5.48,-0.75 2.35,0 4.58,0.36 6.68,1.08 2.1,0.72 3.96,1.69 5.59,2.93l-0.03 -0.03c0.3,0.3 0.59,0.55 0.88,0.77 0.29,0.22 0.42,0.57 0.42,1.04 0,0.13 0,0.28 -0.01,0.45 -0.01,0.17 -0.07,0.33 -0.18,0.48l-2.61 3.97c-0.42,0.63 -0.89,0.95 -1.4,0.95 -0.36,0 -0.76,-0.18 -1.21,-0.54 -1.08,-0.91 -2.34,-1.65 -3.78,-2.22 -1.44,-0.57 -2.93,-0.86 -4.45,-0.86 -1.65,0 -3.2,0.35 -4.65,1.04 -1.45,0.69 -2.74,1.62 -3.84,2.8 -1.1,1.19 -1.97,2.55 -2.61,4.11 -0.64,1.57 -0.95,3.21 -0.95,4.93 0,1.76 0.32,3.42 0.95,4.97 0.63,1.56 1.5,2.9 2.6,4.05 1.09,1.15 2.36,2.06 3.82,2.72 1.46,0.67 3.02,1.01 4.67,1.01 1.8,0 3.36,-0.32 4.68,-0.94 1.31,-0.63 2.51,-1.37 3.59,-2.24z"/>
  <path id="2" fill="#0F5FFF" fill-rule="nonzero" d="M368 61.82c0,0.38 -0.09,0.69 -0.24,0.93 -0.16,0.24 -0.36,0.43 -0.62,0.57 -0.25,0.14 -0.55,0.23 -0.88,0.29 -0.33,0.05 -0.68,0.08 -1.04,0.08l-3.99 0c-0.69,0 -1.16,-0.18 -1.42,-0.54 -0.26,-0.36 -0.46,-0.82 -0.59,-1.37l-0.19 -2.69c-0.74,0.74 -1.56,1.44 -2.46,2.09 -0.9,0.66 -1.88,1.22 -2.91,1.69 -1.04,0.48 -2.14,0.85 -3.31,1.11 -1.17,0.26 -2.36,0.4 -3.59,0.4 -1.91,0 -3.74,-0.25 -5.51,-0.75 -1.77,-0.5 -3.43,-1.2 -4.98,-2.1 -1.55,-0.9 -2.94,-1.98 -4.21,-3.25 -1.26,-1.28 -2.34,-2.69 -3.24,-4.24 -0.9,-1.55 -1.6,-3.21 -2.1,-4.99 -0.5,-1.78 -0.75,-3.63 -0.75,-5.57 0,-1.93 0.25,-3.78 0.75,-5.56 0.5,-1.78 1.2,-3.44 2.1,-4.99 0.9,-1.55 1.98,-2.96 3.24,-4.22 1.26,-1.26 2.66,-2.34 4.21,-3.24 1.55,-0.9 3.21,-1.6 4.98,-2.1 1.77,-0.5 3.6,-0.75 5.51,-0.75 1.36,0 2.65,0.14 3.88,0.42 1.23,0.29 2.38,0.69 3.45,1.21 1.07,0.52 2.06,1.14 2.97,1.88 0.91,0.73 1.74,1.54 2.48,2.41l0.45 -3.42c0.11,-0.38 0.21,-0.7 0.31,-0.94 0.09,-0.24 0.21,-0.45 0.35,-0.59 0.14,-0.15 0.32,-0.24 0.53,-0.3 0.21,-0.05 0.48,-0.09 0.79,-0.09l3.19 0c0.34,0 0.68,0.03 1.02,0.1 0.34,0.06 0.66,0.16 0.93,0.3 0.28,0.14 0.49,0.34 0.65,0.58 0.16,0.24 0.24,0.54 0.24,0.9l0 36.75zm-33.07 -18.34c0,1.69 0.3,3.3 0.89,4.81 0.59,1.52 1.42,2.85 2.48,4 1.05,1.14 2.3,2.05 3.73,2.71 1.42,0.67 2.99,1.01 4.68,1.01 1.71,0 3.32,-0.34 4.8,-1.01 1.49,-0.67 2.8,-1.57 3.89,-2.71 1.1,-1.14 1.97,-2.48 2.61,-4 0.63,-1.51 0.95,-3.11 0.95,-4.81 0,-1.68 -0.32,-3.28 -0.95,-4.79 -0.64,-1.52 -1.51,-2.84 -2.61,-3.99 -1.09,-1.14 -2.39,-2.06 -3.89,-2.74 -1.48,-0.68 -3.09,-1.02 -4.8,-1.02 -1.7,0 -3.26,0.34 -4.68,1.02 -1.43,0.68 -2.68,1.59 -3.73,2.74 -1.06,1.14 -1.89,2.47 -2.48,3.99 -0.59,1.51 -0.89,3.11 -0.89,4.79z"/>
  <path id="3" fill="#0F5FFF" fill-rule="nonzero" d="M407.52 59.1c-0.74,0.74 -1.56,1.45 -2.46,2.11 -0.9,0.66 -1.86,1.23 -2.89,1.71 -1.03,0.48 -2.12,0.86 -3.27,1.14 -1.16,0.28 -2.37,0.41 -3.62,0.41 -2.86,0 -5.52,-0.55 -7.99,-1.64 -2.47,-1.09 -4.62,-2.57 -6.45,-4.46 -1.83,-1.9 -3.28,-4.1 -4.31,-6.64 -1.04,-2.54 -1.56,-5.25 -1.56,-8.14 0,-2.91 0.52,-5.62 1.56,-8.16 1.04,-2.53 2.48,-4.74 4.31,-6.64 1.83,-1.89 3.99,-3.37 6.45,-4.46 2.47,-1.09 5.13,-1.64 7.99,-1.64 2.59,0 4.86,0.45 6.84,1.38 1.97,0.92 3.72,2.18 5.25,3.77l0 -14.63c0,-0.55 0.17,-1 0.51,-1.37 0.34,-0.36 0.83,-0.54 1.46,-0.54l5.22 0c0.49,0 0.94,0.18 1.37,0.53 0.42,0.35 0.63,0.81 0.63,1.38l0 48.58c0,1.27 -0.68,1.91 -2.03,1.91l-4.77 0c-0.64,0 -1.07,-0.16 -1.31,-0.48 -0.23,-0.32 -0.44,-0.8 -0.63,-1.43l-0.29 -2.69zm-23.59 -15.52c0,1.69 0.3,3.3 0.89,4.81 0.59,1.51 1.42,2.84 2.48,3.96 1.05,1.12 2.3,2.01 3.73,2.67 1.42,0.66 2.99,0.99 4.68,0.99 1.66,0 3.24,-0.33 4.73,-0.98 1.48,-0.65 2.77,-1.53 3.87,-2.64 1.1,-1.11 1.98,-2.4 2.63,-3.88 0.65,-1.47 0.99,-3.04 1.03,-4.71l0 -0.22c0,-1.68 -0.32,-3.28 -0.95,-4.8 -0.63,-1.53 -1.5,-2.87 -2.61,-4.03 -1.09,-1.16 -2.4,-2.08 -3.89,-2.77 -1.48,-0.69 -3.09,-1.03 -4.8,-1.03 -1.69,0 -3.26,0.34 -4.68,1.03 -1.43,0.69 -2.68,1.61 -3.73,2.77 -1.06,1.16 -1.89,2.5 -2.48,4.03 -0.59,1.53 -0.89,3.13 -0.89,4.8z"/>
  <path id="4" fill="#0F5FFF" fill-rule="nonzero" d="M458.1 59.23c-1.86,1.6 -3.9,2.86 -6.11,3.78 -2.22,0.92 -4.65,1.38 -7.3,1.38 -2.86,0 -5.57,-0.54 -8.14,-1.62 -2.57,-1.08 -4.81,-2.57 -6.74,-4.45 -1.93,-1.9 -3.45,-4.1 -4.59,-6.63 -1.13,-2.54 -1.71,-5.27 -1.71,-8.2 0,-1.88 0.23,-3.71 0.7,-5.47 0.47,-1.76 1.14,-3.41 1.99,-4.95 0.86,-1.54 1.9,-2.94 3.13,-4.23 1.23,-1.28 2.61,-2.39 4.12,-3.3 1.51,-0.91 3.16,-1.61 4.93,-2.11 1.77,-0.5 3.63,-0.75 5.61,-0.75 1.61,0 3.2,0.19 4.77,0.58 1.57,0.39 3.06,0.95 4.47,1.68 1.41,0.72 2.72,1.59 3.95,2.62 1.23,1.03 2.31,2.2 3.24,3.49 1.27,1.78 2.2,3.7 2.8,5.76 0.59,2.05 0.89,4.33 0.89,6.84 0,0.62 -0.02,1.12 -0.08,1.54 -0.05,0.41 -0.19,0.75 -0.4,1.01 -0.21,0.25 -0.53,0.43 -0.95,0.55 -0.42,0.12 -1.02,0.18 -1.78,0.18l-28.2 0c0.28,1.52 0.8,2.87 1.58,4.04 0.77,1.18 1.68,2.16 2.74,2.98 1.06,0.82 2.22,1.43 3.47,1.85 1.25,0.41 2.5,0.62 3.75,0.62 0.95,0 1.88,-0.1 2.76,-0.29 0.88,-0.19 1.7,-0.45 2.46,-0.76 0.76,-0.32 1.47,-0.69 2.12,-1.1 0.65,-0.41 1.21,-0.84 1.7,-1.28 0,-0.02 0.01,-0.03 0.03,-0.03 0.25,-0.23 0.5,-0.42 0.73,-0.56 0.23,-0.14 0.48,-0.2 0.73,-0.2 0.19,0 0.41,0.06 0.66,0.19 0.24,0.13 0.48,0.34 0.71,0.63 0.57,0.7 1.06,1.28 1.46,1.75 0.4,0.46 0.73,0.86 0.99,1.17 0.26,0.32 0.45,0.59 0.56,0.83 0.12,0.23 0.17,0.48 0.17,0.71 0,0.6 -0.4,1.2 -1.21,1.79zm-14.12 -28.67c-1.25,0 -2.47,0.22 -3.66,0.68 -1.19,0.46 -2.27,1.07 -3.25,1.86 -0.99,0.78 -1.84,1.71 -2.57,2.76 -0.73,1.06 -1.27,2.19 -1.61,3.42l22.51 0c-0.34,-1.29 -0.85,-2.47 -1.54,-3.53 -0.69,-1.07 -1.53,-1.99 -2.5,-2.76 -0.97,-0.77 -2.09,-1.37 -3.34,-1.79 -1.25,-0.42 -2.6,-0.63 -4.04,-0.63z"/>
  <path id="5" fill="#0F5FFF" fill-rule="nonzero" d="M471.68 25.19c0,-0.72 0.28,-1.22 0.82,-1.48 0.54,-0.26 1.22,-0.39 2.03,-0.39l3.22 0c0.62,0 1.07,0.2 1.37,0.6 0.3,0.4 0.51,0.86 0.61,1.35l0.35 3.06c0.49,-0.73 1.05,-1.43 1.69,-2.1 0.63,-0.68 1.39,-1.27 2.27,-1.79 0.88,-0.51 1.91,-0.92 3.08,-1.23 1.18,-0.31 2.55,-0.46 4.12,-0.46 1.48,0 2.83,0.15 4.04,0.43 1.21,0.28 2.3,0.71 3.27,1.28 0.97,0.56 1.86,1.26 2.64,2.09 0.78,0.82 1.49,1.76 2.13,2.83 0.51,-1 1.2,-1.91 2.07,-2.74 0.87,-0.83 1.88,-1.54 3.01,-2.12 1.13,-0.58 2.38,-1.04 3.74,-1.36 1.36,-0.32 2.77,-0.48 4.23,-0.48 2.51,0 4.71,0.45 6.61,1.37 1.9,0.91 3.48,2.16 4.76,3.75 1.27,1.59 2.23,3.44 2.87,5.56 0.65,2.12 0.97,4.39 0.97,6.8l0 21.2c0,0.76 -0.18,1.34 -0.54,1.73 -0.36,0.39 -0.88,0.59 -1.57,0.59l-4.84 0c-0.86,0 -1.42,-0.16 -1.71,-0.48 -0.29,-0.32 -0.43,-0.88 -0.43,-1.69l0 -21.34c0,-1.12 -0.16,-2.22 -0.48,-3.27 -0.32,-1.05 -0.81,-1.99 -1.48,-2.81 -0.67,-0.82 -1.5,-1.48 -2.51,-1.97 -1.01,-0.5 -2.22,-0.74 -3.62,-0.74 -1.16,0 -2.25,0.2 -3.24,0.62 -1,0.41 -1.85,1 -2.57,1.78 -0.72,0.77 -1.28,1.71 -1.69,2.8 -0.41,1.09 -0.63,2.3 -0.63,3.63l0 21.19c0,1.53 -0.69,2.29 -2.07,2.29l-4.86 0c-0.85,0 -1.41,-0.16 -1.69,-0.48 -0.28,-0.32 -0.41,-0.88 -0.41,-1.69l0 -21.31c0,-1.1 -0.15,-2.17 -0.46,-3.22 -0.31,-1.05 -0.78,-1.98 -1.43,-2.81 -0.65,-0.83 -1.48,-1.49 -2.5,-2 -1.02,-0.51 -2.22,-0.76 -3.62,-0.76 -0.97,0 -1.95,0.18 -2.93,0.55 -0.97,0.37 -1.85,0.91 -2.65,1.61 -0.79,0.7 -1.45,1.56 -1.96,2.57 -0.51,1.01 -0.77,2.16 -0.8,3.46l0 22.2c0,0.55 -0.18,1.01 -0.54,1.36 -0.36,0.35 -0.82,0.52 -1.38,0.52l-5.26 0c-0.71,0 -1.22,-0.17 -1.55,-0.5 -0.33,-0.33 -0.5,-0.8 -0.5,-1.41l0 -36.6z"/>
  <path id="6" fill="#0F5FFF" fill-rule="nonzero" d="M554.25 75.36c-0.19,0.47 -0.43,0.81 -0.73,1.03 -0.3,0.22 -0.69,0.34 -1.17,0.34l-5.98 0c-0.59,0 -1,-0.11 -1.22,-0.31 -0.22,-0.2 -0.34,-0.45 -0.34,-0.74 0,-0.15 0.03,-0.36 0.09,-0.64 0.05,-0.28 0.09,-0.43 0.14,-0.48l5.6 -14.27 -14.18 -34.56c0,-0.04 -0.01,-0.07 -0.03,-0.09l0 -0.29c-0.11,-0.23 -0.16,-0.5 -0.16,-0.79 0,-0.36 0.13,-0.65 0.38,-0.86 0.25,-0.21 0.65,-0.32 1.17,-0.32l5.76 0c0.91,0 1.54,0.45 1.88,1.34l0.57 1.49c0.43,1.19 0.9,2.51 1.43,3.98 0.53,1.48 1.08,2.99 1.65,4.56 0.57,1.57 1.16,3.15 1.74,4.73 0.58,1.58 1.13,3.05 1.65,4.44 0.52,1.39 0.99,2.64 1.41,3.75 0.43,1.11 0.77,1.99 1.02,2.62l9.41 -25.61c0.19,-0.46 0.44,-0.82 0.73,-1.04 0.3,-0.22 0.69,-0.33 1.18,-0.33l5.98 0c0.6,0 1.01,0.09 1.23,0.3 0.22,0.2 0.33,0.46 0.33,0.75 0,0.15 -0.02,0.36 -0.07,0.64 -0.06,0.28 -0.11,0.43 -0.15,0.48l-19.3 49.88z"/>
 </g>
</svg>
