<?xml version="1.0" encoding="UTF-8"?>
<!DOCTYPE svg PUBLIC "-//W3C//DTD SVG 1.1//EN" "http://www.w3.org/Graphics/SVG/1.1/DTD/svg11.dtd">
<!-- Creator: CorelDRAW 2018 (64 Bit Versão de avaliação) -->
<svg xmlns="http://www.w3.org/2000/svg" xml:space="preserve" width="16.7678mm" height="2.3994mm" version="1.1" shape-rendering="geometricPrecision" text-rendering="geometricPrecision" image-rendering="optimizeQuality" fill-rule="evenodd" clip-rule="evenodd"
viewBox="0 0 1403.79 200.88"
 xmlns:xlink="http://www.w3.org/1999/xlink">
 <g id="Camada_x0020_1">
  <metadata id="CorelCorpID_0Corel-Layer"/>
  <g id="_2645566568016">
   <path fill="#0F5FFF" d="M26.05 123.7l2.49 1.58 0.59 -38.98c5.34,-0.38 51.59,17.8 61.68,20.65 4.13,-2.46 7.12,-4.92 13.12,-6.81 5.22,-1.62 10.96,-2.96 16.68,-2.28 -9.41,2.05 -25.13,7.64 -27.08,14.46 -0.9,3.17 -0.73,39.57 -0.08,42.42 7.56,16.94 117.84,17.05 139.36,3.79 6.45,-3.98 4.24,-13.21 4.24,-22.81 0,-8.99 -0.39,-18.86 0.18,-27.75 8.15,-2.57 65.6,-21.73 67.9,-25.12 -2.74,-3.39 -59.68,-25.85 -68.57,-29.64l-70.32 -29.15c-3.2,-0.34 -127.8,52.01 -140.57,57.81 1.43,12.81 0.18,28.05 0.39,41.83zm71.99 29.65c8.2,8.67 52.84,9.73 67.42,9.69 12.16,-0.03 24.84,-0.53 36.56,-1.92 6.01,-0.71 27.07,-2.34 29.93,-8.81 -12.59,-11.95 -127.71,-13.55 -133.91,1.03z"/>
   <path fill="#FED700" d="M28.53 125.29l-2.49 -1.59c-0.18,5.36 -4,14.51 -6.4,18.59l-19.64 1.41c0.59,2.83 12.06,10.99 15,12.72l-5.13 20.4 17.43 -11.07c5.14,3.38 11.83,8.66 17.11,10.73l-5.25 -20.34c3.46,-1.63 13.47,-8.75 15.62,-12.37l-19.93 -0.95 -6.33 -17.53z"/>
  </g>
  <path fill="#0F5FFF" fill-rule="nonzero" d="M427.71 147.16c-5.73,4.91 -11.97,8.78 -18.77,11.61 -6.8,2.83 -14.28,4.23 -22.42,4.23 -8.78,0 -17.11,-1.66 -24.98,-4.97 -7.88,-3.32 -14.78,-7.88 -20.7,-13.66 -5.93,-5.83 -10.61,-12.59 -14.09,-20.37 -3.48,-7.81 -5.24,-16.17 -5.24,-25.18 0,-5.79 0.72,-11.39 2.15,-16.79 1.43,-5.4 3.48,-10.47 6.11,-15.2 2.64,-4.71 5.83,-9.04 9.6,-12.98 3.78,-3.93 8,-7.33 12.66,-10.12 4.65,-2.8 9.69,-4.95 15.13,-6.47 5.43,-1.53 11.16,-2.31 17.21,-2.31 4.94,0 9.82,0.59 14.64,1.79 4.81,1.2 9.4,2.92 13.73,5.14 4.32,2.21 8.36,4.88 12.13,8.04 3.78,3.16 7.09,6.73 9.95,10.7 3.91,5.47 6.77,11.36 8.59,17.66 1.83,6.31 2.74,13.31 2.74,20.99 0,1.89 -0.07,3.45 -0.23,4.72 -0.17,1.26 -0.59,2.31 -1.24,3.09 -0.65,0.78 -1.62,1.33 -2.93,1.69 -1.3,0.36 -3.12,0.55 -5.47,0.55l-86.57 0c0.85,4.65 2.47,8.82 4.85,12.4 2.38,3.61 5.17,6.64 8.42,9.14 3.26,2.5 6.81,4.39 10.64,5.66 3.84,1.27 7.68,1.88 11.52,1.88 2.93,0 5.76,-0.29 8.46,-0.88 2.7,-0.58 5.21,-1.36 7.55,-2.34 2.34,-0.98 4.52,-2.12 6.5,-3.38 1.98,-1.27 3.71,-2.58 5.21,-3.94 0,-0.07 0.03,-0.09 0.1,-0.09 0.78,-0.72 1.52,-1.31 2.24,-1.72 0.71,-0.43 1.47,-0.62 2.24,-0.62 0.59,0 1.27,0.19 2.02,0.59 0.75,0.39 1.47,1.04 2.18,1.95 1.76,2.14 3.26,3.93 4.5,5.37 1.23,1.43 2.24,2.64 3.02,3.62 0.78,0.97 1.36,1.82 1.72,2.54 0.36,0.71 0.52,1.47 0.52,2.18 0,1.83 -1.23,3.68 -3.71,5.5zm-43.33 -88.01c-3.84,0 -7.58,0.69 -11.23,2.08 -3.64,1.4 -6.97,3.29 -9.99,5.69 -3.03,2.41 -5.66,5.24 -7.91,8.46 -2.24,3.25 -3.9,6.73 -4.94,10.51l69.1 0c-1.04,-3.97 -2.6,-7.58 -4.71,-10.83 -2.12,-3.29 -4.69,-6.12 -7.68,-8.46 -3,-2.37 -6.41,-4.19 -10.26,-5.49 -3.83,-1.31 -7.97,-1.96 -12.39,-1.96z"/>
  <path id="1" fill="#0F5FFF" fill-rule="nonzero" d="M579.27 155.1c0,1.17 -0.26,2.12 -0.75,2.86 -0.49,0.75 -1.11,1.33 -1.88,1.76 -0.78,0.43 -1.69,0.71 -2.7,0.88 -1,0.16 -2.08,0.26 -3.18,0.26l-12.24 0c-2.11,0 -3.54,-0.55 -4.35,-1.66 -0.82,-1.11 -1.43,-2.5 -1.83,-4.2l-0.59 -8.26c-2.28,2.28 -4.78,4.43 -7.55,6.41 -2.76,2.02 -5.76,3.74 -8.94,5.21 -3.19,1.47 -6.57,2.6 -10.16,3.42 -3.57,0.81 -7.26,1.23 -11.03,1.23 -5.86,0 -11.49,-0.78 -16.92,-2.3 -5.43,-1.53 -10.54,-3.68 -15.3,-6.45 -4.75,-2.76 -9.04,-6.09 -12.92,-9.99 -3.87,-3.93 -7.19,-8.26 -9.95,-13.02 -2.76,-4.75 -4.91,-9.85 -6.44,-15.32 -1.53,-5.47 -2.31,-11.16 -2.31,-17.11 0,-5.93 0.78,-11.62 2.31,-17.09 1.52,-5.46 3.68,-10.57 6.44,-15.32 2.76,-4.75 6.09,-9.08 9.95,-12.95 3.88,-3.87 8.17,-7.19 12.92,-9.95 4.76,-2.76 9.86,-4.91 15.3,-6.44 5.43,-1.53 11.06,-2.31 16.92,-2.31 4.16,0 8.13,0.42 11.9,1.3 3.78,0.88 7.32,2.12 10.61,3.71 3.28,1.59 6.31,3.52 9.11,5.76 2.8,2.24 5.33,4.71 7.62,7.38l1.36 -10.51c0.33,-1.17 0.64,-2.15 0.94,-2.9 0.29,-0.75 0.65,-1.36 1.08,-1.83 0.42,-0.45 0.97,-0.75 1.62,-0.9 0.65,-0.17 1.47,-0.27 2.44,-0.27l9.79 0c1.05,0 2.08,0.1 3.12,0.29 1.05,0.2 2.02,0.49 2.86,0.91 0.85,0.43 1.5,1.05 1.98,1.79 0.49,0.75 0.75,1.66 0.75,2.76l0 112.84zm-101.52 -56.32c0,5.21 0.91,10.12 2.74,14.77 1.83,4.65 4.36,8.76 7.61,12.26 3.22,3.52 7.07,6.28 11.45,8.33 4.36,2.05 9.18,3.1 14.38,3.1 5.24,0 10.18,-1.05 14.74,-3.1 4.59,-2.05 8.59,-4.81 11.94,-8.33 3.38,-3.51 6.05,-7.61 8,-12.26 1.95,-4.65 2.93,-9.56 2.93,-14.77 0,-5.14 -0.98,-10.05 -2.93,-14.71 -1.95,-4.65 -4.62,-8.72 -8,-12.23 -3.35,-3.52 -7.35,-6.31 -11.94,-8.4 -4.56,-2.08 -9.5,-3.12 -14.74,-3.12 -5.21,0 -10.02,1.05 -14.38,3.12 -4.39,2.08 -8.23,4.88 -11.45,8.4 -3.25,3.52 -5.79,7.58 -7.61,12.23 -1.83,4.65 -2.74,9.57 -2.74,14.71z"/>
  <path id="2" fill="#0F5FFF" fill-rule="nonzero" d="M590.27 5.86c0,-1.7 0.36,-3.1 1.05,-4.2 0.68,-1.11 2.31,-1.66 4.94,-1.66l16.73 0c1.92,0 3.28,0.59 4.13,1.72 0.85,1.14 1.27,2.34 1.27,3.64l0 80.6 42.95 -46.43c0.85,-0.85 1.72,-1.5 2.6,-1.95 0.88,-0.46 1.92,-0.69 3.16,-0.69l22.35 0c1.43,0 2.5,0.29 3.22,0.88 0.71,0.59 1.07,1.36 1.07,2.34 0,0.65 -0.1,1.23 -0.29,1.76 -0.19,0.52 -0.55,1.11 -1.07,1.76l-43.83 45.78 52.02 64.22 -0.19 0c0.71,0.72 1.23,1.5 1.52,2.34 0.29,0.85 0.43,1.53 0.43,2.05 0,1.11 -0.33,1.85 -0.98,2.24 -0.65,0.39 -1.62,0.59 -2.93,0.59l-24.89 0c-1.88,0 -3.71,-1.36 -5.47,-4.1l-37.77 -49.09 -11.71 12.2 0 35.14c0,0.59 -0.09,1.21 -0.29,1.89 -0.19,0.68 -0.52,1.33 -0.94,1.92 -0.43,0.59 -0.98,1.07 -1.69,1.47 -0.72,0.39 -1.6,0.59 -2.67,0.59l-17.31 0c-1,0 -1.82,-0.19 -2.47,-0.59 -0.65,-0.39 -1.21,-0.88 -1.66,-1.47 -0.46,-0.59 -0.78,-1.21 -0.98,-1.82 -0.19,-0.62 -0.29,-1.11 -0.29,-1.5l0 -149.63z"/>
  <path id="3" fill="#0F5FFF" fill-rule="nonzero" d="M829.97 155.1c0,1.17 -0.26,2.12 -0.75,2.86 -0.49,0.75 -1.11,1.33 -1.88,1.76 -0.78,0.43 -1.69,0.71 -2.7,0.88 -1,0.16 -2.08,0.26 -3.18,0.26l-12.24 0c-2.11,0 -3.54,-0.55 -4.35,-1.66 -0.82,-1.11 -1.43,-2.5 -1.83,-4.2l-0.59 -8.26c-2.28,2.28 -4.78,4.43 -7.55,6.41 -2.76,2.02 -5.76,3.74 -8.94,5.21 -3.19,1.47 -6.57,2.6 -10.16,3.42 -3.57,0.81 -7.26,1.23 -11.03,1.23 -5.86,0 -11.49,-0.78 -16.92,-2.3 -5.43,-1.53 -10.54,-3.68 -15.3,-6.45 -4.75,-2.76 -9.04,-6.09 -12.92,-9.99 -3.87,-3.93 -7.19,-8.26 -9.95,-13.02 -2.76,-4.75 -4.91,-9.85 -6.44,-15.32 -1.53,-5.47 -2.31,-11.16 -2.31,-17.11 0,-5.93 0.78,-11.62 2.31,-17.09 1.52,-5.46 3.68,-10.57 6.44,-15.32 2.76,-4.75 6.09,-9.08 9.95,-12.95 3.88,-3.87 8.17,-7.19 12.92,-9.95 4.76,-2.76 9.86,-4.91 15.3,-6.44 5.43,-1.53 11.06,-2.31 16.92,-2.31 4.16,0 8.13,0.42 11.9,1.3 3.78,0.88 7.32,2.12 10.61,3.71 3.28,1.59 6.31,3.52 9.11,5.76 2.8,2.24 5.33,4.71 7.62,7.38l1.36 -10.51c0.33,-1.17 0.64,-2.15 0.94,-2.9 0.29,-0.75 0.65,-1.36 1.08,-1.83 0.42,-0.45 0.97,-0.75 1.62,-0.9 0.65,-0.17 1.47,-0.27 2.44,-0.27l9.79 0c1.05,0 2.08,0.1 3.12,0.29 1.05,0.2 2.02,0.49 2.86,0.91 0.85,0.43 1.5,1.05 1.98,1.79 0.49,0.75 0.75,1.66 0.75,2.76l0 112.84zm-101.52 -56.32c0,5.21 0.91,10.12 2.74,14.77 1.83,4.65 4.36,8.76 7.61,12.26 3.22,3.52 7.07,6.28 11.45,8.33 4.36,2.05 9.18,3.1 14.38,3.1 5.24,0 10.18,-1.05 14.74,-3.1 4.59,-2.05 8.59,-4.81 11.94,-8.33 3.38,-3.51 6.05,-7.61 8,-12.26 1.95,-4.65 2.93,-9.56 2.93,-14.77 0,-5.14 -0.98,-10.05 -2.93,-14.71 -1.95,-4.65 -4.62,-8.72 -8,-12.23 -3.35,-3.52 -7.35,-6.31 -11.94,-8.4 -4.56,-2.08 -9.5,-3.12 -14.74,-3.12 -5.21,0 -10.02,1.05 -14.38,3.12 -4.39,2.08 -8.23,4.88 -11.45,8.4 -3.25,3.52 -5.79,7.58 -7.61,12.23 -1.83,4.65 -2.74,9.57 -2.74,14.71z"/>
  <path id="4" fill="#0F5FFF" fill-rule="nonzero" d="M936.82 146.73c-2.28,2.28 -4.78,4.46 -7.54,6.48 -2.77,2.02 -5.73,3.78 -8.88,5.23 -3.16,1.47 -6.5,2.64 -10.05,3.48 -3.55,0.85 -7.26,1.27 -11.09,1.27 -8.79,0 -16.95,-1.69 -24.54,-5.05 -7.58,-3.35 -14.18,-7.9 -19.81,-13.7 -5.63,-5.82 -10.05,-12.59 -13.24,-20.37 -3.19,-7.8 -4.78,-16.1 -4.78,-24.98 0,-8.92 1.59,-17.25 4.78,-25.06 3.19,-7.78 7.61,-14.54 13.24,-20.37 5.63,-5.79 12.23,-10.34 19.81,-13.7 7.58,-3.35 15.75,-5.04 24.54,-5.04 7.94,0 14.94,1.4 20.98,4.23 6.05,2.83 11.42,6.71 16.11,11.59l0 -44.9c0,-1.7 0.52,-3.1 1.57,-4.2 1.04,-1.11 2.54,-1.66 4.49,-1.66l16.01 0c1.5,0 2.9,0.55 4.19,1.62 1.31,1.08 1.96,2.48 1.96,4.24l0 149.14c0,3.91 -2.08,5.86 -6.25,5.86l-14.63 0c-1.96,0 -3.29,-0.49 -4,-1.47 -0.72,-0.97 -1.37,-2.44 -1.96,-4.4l-0.88 -8.26zm-72.43 -47.66c0,5.21 0.91,10.12 2.74,14.77 1.83,4.65 4.36,8.72 7.61,12.17 3.22,3.45 7.07,6.18 11.45,8.2 4.36,2.02 9.18,3.03 14.38,3.03 5.11,0 9.95,-1.01 14.51,-3 4.55,-1.98 8.53,-4.69 11.88,-8.1 3.38,-3.42 6.09,-7.38 8.07,-11.9 1.98,-4.52 3.02,-9.33 3.16,-14.48l0 -0.68c0,-5.14 -0.98,-10.05 -2.93,-14.74 -1.95,-4.68 -4.62,-8.82 -8,-12.36 -3.35,-3.55 -7.35,-6.38 -11.94,-8.5 -4.56,-2.11 -9.5,-3.16 -14.74,-3.16 -5.21,0 -10.02,1.05 -14.38,3.16 -4.39,2.12 -8.23,4.95 -11.45,8.5 -3.25,3.54 -5.79,7.68 -7.61,12.36 -1.83,4.69 -2.74,9.6 -2.74,14.74z"/>
  <path id="5" fill="#0F5FFF" fill-rule="nonzero" d="M1077.64 147.16c-5.73,4.91 -11.97,8.78 -18.77,11.61 -6.8,2.83 -14.28,4.23 -22.42,4.23 -8.78,0 -17.11,-1.66 -24.98,-4.97 -7.88,-3.32 -14.78,-7.88 -20.7,-13.66 -5.93,-5.83 -10.61,-12.59 -14.09,-20.37 -3.48,-7.81 -5.24,-16.17 -5.24,-25.18 0,-5.79 0.72,-11.39 2.15,-16.79 1.43,-5.4 3.48,-10.47 6.11,-15.2 2.64,-4.71 5.83,-9.04 9.6,-12.98 3.78,-3.93 8,-7.33 12.66,-10.12 4.65,-2.8 9.69,-4.95 15.13,-6.47 5.43,-1.53 11.16,-2.31 17.21,-2.31 4.94,0 9.82,0.59 14.64,1.79 4.81,1.2 9.4,2.92 13.73,5.14 4.32,2.21 8.36,4.88 12.13,8.04 3.78,3.16 7.09,6.73 9.95,10.7 3.91,5.47 6.77,11.36 8.59,17.66 1.83,6.31 2.74,13.31 2.74,20.99 0,1.89 -0.07,3.45 -0.23,4.72 -0.17,1.26 -0.59,2.31 -1.24,3.09 -0.65,0.78 -1.62,1.33 -2.93,1.69 -1.3,0.36 -3.12,0.55 -5.47,0.55l-86.57 0c0.85,4.65 2.47,8.82 4.85,12.4 2.38,3.61 5.17,6.64 8.42,9.14 3.26,2.5 6.81,4.39 10.64,5.66 3.84,1.27 7.68,1.88 11.52,1.88 2.93,0 5.76,-0.29 8.46,-0.88 2.7,-0.58 5.21,-1.36 7.55,-2.34 2.34,-0.98 4.52,-2.12 6.5,-3.38 1.98,-1.27 3.71,-2.58 5.21,-3.94 0,-0.07 0.03,-0.09 0.1,-0.09 0.78,-0.72 1.52,-1.31 2.24,-1.72 0.71,-0.43 1.47,-0.62 2.24,-0.62 0.59,0 1.27,0.19 2.02,0.59 0.75,0.39 1.47,1.04 2.18,1.95 1.76,2.14 3.26,3.93 4.5,5.37 1.23,1.43 2.24,2.64 3.02,3.62 0.78,0.97 1.36,1.82 1.72,2.54 0.36,0.71 0.52,1.47 0.52,2.18 0,1.83 -1.23,3.68 -3.71,5.5zm-43.33 -88.01c-3.84,0 -7.58,0.69 -11.23,2.08 -3.64,1.4 -6.97,3.29 -9.99,5.69 -3.03,2.41 -5.66,5.24 -7.91,8.46 -2.24,3.25 -3.9,6.73 -4.94,10.51l69.1 0c-1.04,-3.97 -2.6,-7.58 -4.71,-10.83 -2.12,-3.29 -4.69,-6.12 -7.68,-8.46 -3,-2.37 -6.41,-4.19 -10.26,-5.49 -3.83,-1.31 -7.97,-1.96 -12.39,-1.96z"/>
  <path id="6" fill="#0F5FFF" fill-rule="nonzero" d="M1104.84 42.65c0,-2.21 0.85,-3.74 2.51,-4.55 1.66,-0.81 3.73,-1.21 6.21,-1.21l9.89 0c1.89,0 3.29,0.62 4.2,1.86 0.9,1.23 1.56,2.63 1.88,4.13l1.07 9.4c1.5,-2.24 3.22,-4.39 5.17,-6.44 1.95,-2.08 4.26,-3.91 6.97,-5.5 2.7,-1.57 5.85,-2.83 9.47,-3.78 3.61,-0.94 7.84,-1.43 12.66,-1.43 4.55,0 8.68,0.46 12.39,1.34 3.71,0.87 7.07,2.18 10.05,3.93 3,1.72 5.69,3.87 8.1,6.4 2.4,2.51 4.59,5.41 6.54,8.69 1.57,-3.06 3.68,-5.85 6.35,-8.43 2.66,-2.54 5.76,-4.71 9.24,-6.5 3.47,-1.79 7.32,-3.19 11.48,-4.16 4.17,-0.98 8.5,-1.47 12.98,-1.47 7.71,0 14.45,1.4 20.3,4.19 5.83,2.8 10.67,6.64 14.61,11.52 3.9,4.88 6.83,10.57 8.82,17.08 1.98,6.51 3,13.47 3,20.89l0 65.11c0,2.34 -0.55,4.1 -1.66,5.3 -1.11,1.21 -2.7,1.83 -4.82,1.83l-14.87 0c-2.63,0 -4.35,-0.49 -5.23,-1.47 -0.88,-0.97 -1.34,-2.7 -1.34,-5.17l0 -65.53c0,-3.45 -0.49,-6.8 -1.47,-10.05 -0.97,-3.22 -2.47,-6.11 -4.52,-8.62 -2.05,-2.5 -4.62,-4.52 -7.71,-6.05 -3.09,-1.52 -6.8,-2.28 -11.09,-2.28 -3.58,0 -6.9,0.62 -9.95,1.89 -3.06,1.26 -5.69,3.09 -7.91,5.47 -2.21,2.37 -3.93,5.23 -5.2,8.59 -1.27,3.35 -1.93,7.06 -1.93,11.16l0 65.04c0,4.68 -2.11,7.02 -6.35,7.02l-14.93 0c-2.6,0 -4.33,-0.49 -5.17,-1.47 -0.85,-0.97 -1.27,-2.7 -1.27,-5.17l0 -65.43c0,-3.38 -0.45,-6.67 -1.4,-9.9 -0.95,-3.21 -2.41,-6.08 -4.4,-8.62 -1.98,-2.54 -4.55,-4.59 -7.68,-6.14 -3.12,-1.57 -6.83,-2.34 -11.13,-2.34 -3,0 -5.99,0.55 -8.98,1.69 -2.99,1.14 -5.69,2.8 -8.13,4.95 -2.44,2.14 -4.46,4.78 -6.02,7.9 -1.57,3.1 -2.38,6.64 -2.44,10.61l0 68.16c0,1.69 -0.55,3.09 -1.66,4.17 -1.11,1.07 -2.5,1.59 -4.23,1.59l-16.14 0c-2.18,0 -3.74,-0.52 -4.75,-1.53 -1.01,-1 -1.53,-2.44 -1.53,-4.33l0 -112.34z"/>
  <path id="7" fill="#0F5FFF" fill-rule="nonzero" d="M1343.86 196.68c-0.59,1.43 -1.34,2.47 -2.24,3.16 -0.91,0.68 -2.12,1.04 -3.62,1.04l-18.35 0c-1.82,0 -3.06,-0.33 -3.74,-0.95 -0.68,-0.61 -1.04,-1.36 -1.04,-2.28 0,-0.45 0.1,-1.11 0.26,-1.95 0.17,-0.85 0.29,-1.33 0.43,-1.47l17.18 -43.83 -43.53 -106.1c0,-0.13 -0.03,-0.23 -0.1,-0.29l0 -0.88c-0.33,-0.71 -0.49,-1.52 -0.49,-2.44 0,-1.11 0.39,-1.98 1.17,-2.64 0.78,-0.65 1.98,-0.98 3.61,-0.98l17.66 0c2.8,0 4.72,1.37 5.76,4.1l1.76 4.59c1.31,3.64 2.76,7.71 4.4,12.23 1.62,4.53 3.32,9.18 5.07,13.99 1.76,4.82 3.55,9.67 5.33,14.52 1.79,4.85 3.48,9.37 5.08,13.63 1.59,4.26 3.02,8.1 4.33,11.52 1.3,3.42 2.34,6.11 3.12,8.04l28.89 -78.61c0.59,-1.43 1.33,-2.5 2.24,-3.18 0.91,-0.69 2.11,-1.01 3.61,-1.01l18.35 0c1.83,0 3.09,0.29 3.78,0.91 0.69,0.62 1,1.4 1,2.31 0,0.45 -0.06,1.11 -0.23,1.95 -0.16,0.85 -0.33,1.33 -0.45,1.47l-59.25 153.15z"/>
 </g>
</svg>
